# xmcd
#
# Track frame offsets:
#	183
#	13248
#	26255
#	39843
#	53113
#	66873
#	72960
#	86090
#	110710
#	136405
#	149245
#	160773
#	172968
#	184345
#	198133
#	210315
#
# Disc length: 2961 seconds
#
# Revision: 8
# Processed by: cddbd v1.5.2PL0 Copyright (c) Steve Scherf et al.
# Submitted via: audiograbber 1.83.01
#
DISCID=e20b8f10
DTITLE=Various Artist - Play Me The Blues... The Legendary Blues Singers [CD 1-10)
DYEAR=1991
DGENRE=Blues
TTITLE0=Muddy Waters - Mannish Boy
TTITLE1=Elmore James - Dust My Broom
TTITLE2=B.B. King - Three O'Clock Blues
TTITLE3=Leadbelly - Tell Me Baby
TTITLE4=Jeff Beck - Jeff's Blues
TTITLE5=Eric Clapton - Choker
TTITLE6=Little Walter - Mean Old World
TTITLE7=John Lee Hooker - My First Wife Left Me
TTITLE8=Mike Bloomfield - Uncle Bob's Barrelhouse Blues
TTITLE9=Muddy Waters - Hoochie Coochie Man
TTITLE10=Howlin' Wolf - Poor Boy
TTITLE11=Elmore James - Mean Mistreatin' Mama
TTITLE12=Sonny Boy Williamson II. - Your Funeral - My Trail
TTITLE13=Memphis Slim - My Baby
TTITLE14=Johnny Guitar Watson - Gangster Of Love
TTITLE15=Big Joe Williams - Sloppy Drunk Blues
EXTD=
EXTT0=
EXTT1=
EXTT2=
EXTT3=
EXTT4=
EXTT5=
EXTT6=
EXTT7=
EXTT8=
EXTT9=
EXTT10=
EXTT11=
EXTT12=
EXTT13=
EXTT14=
EXTT15=
PLAYORDER=
